<svg xmlns="http://www.w3.org/2000/svg" preserveAspectRatio="xMinYMin slice" viewBox="0 0 742.1 160"><path fill="#FFF" d="M.5 130.1v-100h50.2v24H27.5v14.1h20.8v24H27.5v13.9h23.2v24H.5zm96.7-100h27v70.7c0 5.8-.9 10.5-2.8 14.1-1.8 3.8-4.8 7.2-9.1 10.2-5.7 4.1-12.6 6.1-20.8 6.1-9.2 0-17-2.2-23.3-6.8-8-5.7-11.9-14.9-11.9-27.5V30.1h27v65.3c0 4.3.5 7.4 1.6 9.2 1.1 1.8 2.8 2.7 5.3 2.7 2.6 0 4.4-.8 5.4-2.5 1-1.8 1.5-4.9 1.5-9.3.1-.1.1-65.4.1-65.4zm103.9 100h-29.2l-13.4-35.6c-.1-.6-.4-1.4-.7-2.4-.3-1-.7-2.2-1.2-3.6l.2 6.6v35h-26.9v-100h27.7c12.2 0 21.3 2.4 27.3 7.2 7.7 6.1 11.5 14.9 11.5 26.2 0 12.1-5.2 20.4-15.5 25.1l20.2 41.5zm-44.2-55.2h1.8c3.1 0 5.7-1.2 7.8-3.6 2.1-2.4 3.1-5.4 3.1-9.1 0-7.5-3.9-11.2-11.7-11.2h-1v23.9zm120.2 5.5c0 15.1-3.6 27.4-10.7 36.8-7.1 9.4-16.3 14.1-27.7 14.1-10.1 0-18.8-3.6-26-10.8-9.1-9.2-13.6-22.9-13.6-41.2 0-17.5 4.7-31 14.2-40.2 7-6.9 15.4-10.3 25.1-10.3 11.8 0 21.2 4.7 28.2 14s10.5 21.9 10.5 37.6zm-28.7.3c0-18.2-3.3-27.3-9.8-27.3-3.3 0-5.9 2.4-7.8 7.2-1.9 4.4-2.9 10.9-2.9 19.5 0 8.5.9 15 2.7 19.7 1.8 4.7 4.3 7 7.5 7 3.3 0 5.8-2.3 7.6-6.9 1.7-4.6 2.7-11 2.7-19.2zm60.6 49.4h-27v-100h26.2c13 0 22.7 2.7 29 8 7.4 6.3 11.1 15 11.1 26.1 0 12.1-4 21.2-11.9 27.2-5.4 4-13.1 6-23.3 6H309v32.7zm0-53.8l1.2.1c3.3 0 5.9-1 7.8-3 1.9-2 2.9-4.8 2.9-8.3 0-3.5-1-6.3-2.9-8.4-1.9-2.2-4.3-3.3-7.3-3.3H309v22.9zm107.3 53.8h-27.9l-2-12.7h-18.2l-2.2 12.7h-27.9l24-100h33l21.2 100zm-33.1-33.7l-1.8-11.7-.3-1.8c-.1-.9-.5-4.7-1.4-11.3-.1-.7-.2-1.7-.3-3-.2-1.6-.3-3.2-.5-4.8l-.8-9.5c-.1 1-.2 2-.4 3-.2 1.2-.3 2.5-.5 3.7-.2 1.9-.4 3.7-.6 5.6-.1 1-.2 1.7-.3 1.9l-1.9 12.1-2.7 15.7 11.5.1zm64.8 33.7h-27v-76h-14.9v-24h57.4v24H448v76zm47.4 0h-27v-100h27v100zm32.8 0h-27v-100h26.2c13 0 22.7 2.7 29 8 7.4 6.3 11.1 15 11.1 26.1 0 12.1-4 21.2-11.8 27.2-5.4 4-13.2 6-23.3 6h-4.2v32.7zm0-53.8l1.2.1c3.3 0 5.9-1 7.8-3s2.9-4.8 2.9-8.3c0-3.5-1-6.3-2.8-8.4-1.9-2.2-4.3-3.3-7.3-3.3h-1.9v22.9h.1zm42.6 50.6V95.5c5.4 7.4 11.3 11.1 17.6 11.1 2.4 0 4.3-.6 5.8-1.8 1.5-1.2 2.2-2.7 2.2-4.6 0-2.6-1.6-5.2-4.9-7.7l-4.5-3.4c-3-2.2-5.5-4.3-7.7-6.5-2.1-2.1-3.8-4.3-5.2-6.6-1.3-2.3-2.3-4.6-2.9-7s-.9-5-.9-7.7c0-4.6 1.1-9.4 3.3-14.4 1.1-2.3 2.4-4.5 3.8-6.4 1.4-1.9 3.1-3.7 5-5.1 5.2-4.2 11.5-6.4 18.8-6.4 6.6 0 13.2 1.7 19.8 5.1v30.6c-2.2-3.5-4.8-6.2-7.7-8.2-2.9-2-5.7-3-8.5-3-2.1 0-3.9.6-5.2 1.8-1.4 1.2-2.1 2.5-2.1 4.1 0 2.6 1.9 5.2 5.6 7.8l4.4 3.1c5.8 4 10 8.2 12.5 12.4 2.5 4.2 3.8 9.2 3.8 14.9 0 9.7-3.1 17.7-9.2 23.9-6.1 6.3-13.9 9.4-23.3 9.4-6.2.2-13.1-1.2-20.5-4zm57.8 3.2v-100h50.2v24h-23.2v14.1h20.8v24h-20.8v13.9h23.2v24h-50.2zm96.4 0h-27v-76h-14.9v-24h57.4v24H725v76z"/></svg>