<svg xmlns="http://www.w3.org/2000/svg" preserveAspectRatio="xMinYMin slice" viewBox="0 0 661.7 160"><path fill="#FFF" d="M.5 126.9V95.5c5.4 7.4 11.3 11.1 17.6 11.1 2.4 0 4.3-.6 5.8-1.8 1.5-1.2 2.2-2.7 2.2-4.6 0-2.6-1.6-5.2-4.9-7.7l-4.5-3.4c-3-2.2-5.5-4.3-7.7-6.5-2.1-2.1-3.8-4.3-5.1-6.6-1.3-2.3-2.3-4.6-2.9-7s-.9-5-.9-7.6C.1 56.8 1.2 52 3.4 47c1.1-2.3 2.3-4.4 3.8-6.4 1.4-1.9 3.1-3.6 5-5.1 5.2-4.2 11.5-6.4 18.8-6.4 6.6 0 13.2 1.7 19.8 5.1v30.6c-2.2-3.5-4.8-6.2-7.7-8.2-2.9-2-5.7-3-8.4-3-2.1 0-3.9.6-5.2 1.8-1.4 1.1-2.1 2.5-2.1 4.1 0 2.6 1.9 5.2 5.6 7.8l4.4 3.1c5.8 4 10 8.2 12.5 12.4 2.6 4.2 3.8 9.2 3.8 14.9 0 9.7-3.1 17.6-9.2 23.9-6.1 6.3-13.9 9.4-23.2 9.4-6.5.1-13.4-1.3-20.8-4.1zm97 3.2h-27v-76H55.6v-24H113v24H97.5v76zm91.1 0h-29.2l-13.3-35.6c-.1-.6-.4-1.4-.7-2.4-.3-1-.7-2.2-1.2-3.6l.2 6.6V130h-26.9V30.2h27.6c12.2 0 21.3 2.4 27.3 7.2 7.7 6.1 11.5 14.8 11.5 26.1 0 12.1-5.2 20.4-15.5 25l20.2 41.6zm-44-55.1h1.8c3.1 0 5.7-1.2 7.8-3.6 2.1-2.4 3.1-5.4 3.1-9.1 0-7.5-3.9-11.2-11.7-11.2h-1V75zm85.2 55.1h-27V87.8L178 30.2h28.1L211 45c.9 2.9 1.8 5.7 2.6 8.3.8 2.7 1.4 5.2 2 7.7 1-3.7 1.9-6.8 2.6-9.5.7-2.7 1.4-4.8 1.9-6.4l4.9-14.9h28l-23.2 57.6v42.3zm98.3 0H299L281.1 84l.7 46.1h-27V30.2h27l-.7 42.8L297 30.2h28.5L304 78.4l24.1 51.7zm41.2 0h-27v-76h-14.9v-24h57.3v24h-15.5v76zm47.3 0h-27V30.2h27v99.9zm32.7 0h-27V30.2h26.1c13 0 22.7 2.7 29 8 7.4 6.3 11.1 15 11.1 26.1 0 12.1-3.9 21.2-11.8 27.1-5.4 4-13.1 6-23.2 6h-4.2v32.7zm0-53.7l1.2.1c3.3 0 5.9-1 7.8-3 1.9-2 2.9-4.8 2.9-8.2 0-3.4-.9-6.3-2.8-8.4-1.9-2.2-4.3-3.3-7.2-3.3h-1.9v22.8zm42.6 50.5V95.5c5.4 7.4 11.3 11.1 17.6 11.1 2.4 0 4.3-.6 5.8-1.8 1.5-1.2 2.2-2.7 2.2-4.6 0-2.6-1.6-5.2-4.9-7.7l-4.5-3.4c-3-2.2-5.5-4.3-7.7-6.5-2.1-2.1-3.8-4.3-5.1-6.6-1.3-2.3-2.3-4.6-2.9-7-.6-2.4-.9-5-.9-7.6 0-4.6 1.1-9.4 3.3-14.4 1.1-2.3 2.3-4.4 3.8-6.4 1.4-1.9 3.1-3.6 5-5.1 5.2-4.2 11.5-6.4 18.8-6.4 6.6 0 13.2 1.7 19.8 5.1v30.6c-2.2-3.5-4.8-6.2-7.7-8.2-2.9-2-5.7-3-8.4-3-2.1 0-3.8.6-5.2 1.8-1.4 1.1-2.1 2.5-2.1 4.1 0 2.6 1.9 5.2 5.6 7.8l4.4 3.1c5.8 4 10 8.2 12.5 12.4 2.5 4.2 3.8 9.2 3.8 14.9 0 9.7-3.1 17.6-9.2 23.9-6.1 6.3-13.9 9.4-23.2 9.4-6.5.1-13.5-1.3-20.8-4.1zm57.7 3.2V30.2h50.1v24h-23.2v14.1h20.8v24h-20.8v13.9h23.2v24h-50.1zm96.3 0h-27v-76H604v-24h57.3v24h-15.5l.1 76z"/></svg>