<svg xmlns="http://www.w3.org/2000/svg" preserveAspectRatio="xMinYMin slice" viewBox="0 0 610.9 160"><path fill="#FFF" d="M136 80.4c0 15.1-3.6 27.4-10.7 36.8-7.1 9.4-16.3 14.1-27.7 14.1-10.1 0-18.8-3.6-26-10.8C62.5 111.4 58 97.7 58 79.3c0-17.5 4.7-30.9 14.2-40.2 7-6.9 15.4-10.3 25.1-10.3 11.8 0 21.2 4.7 28.2 14S136 64.7 136 80.4zm-28.8.3c0-18.2-3.3-27.3-9.8-27.3-3.3 0-5.9 2.4-7.8 7.2-1.9 4.4-2.9 11-2.9 19.6 0 8.5.9 15.1 2.7 19.7 1.8 4.7 4.3 7 7.5 7 3.3 0 5.8-2.3 7.6-6.9 1.8-4.7 2.7-11.1 2.7-19.3zm-63.3 49.4h-27v-76H2v-24h57.4v24H43.9v76zm274.6 0h-27v-76h-14.9v-24H334v24h-15.5v76zm47.4 0h-27v-100h27v100zm32.7 0h-27v-100h26.2c13 0 22.7 2.7 29 8 7.4 6.3 11.1 15 11.1 26.1 0 12.1-4 21.2-11.9 27.1-5.4 4-13.2 6-23.3 6h-4.2l.1 32.8zm0-53.8l1.2.1c3.3 0 5.9-1 7.8-3 1.9-2 2.9-4.8 2.9-8.3 0-3.5-1-6.3-2.8-8.4-1.9-2.2-4.3-3.3-7.3-3.3h-1.9l.1 22.9zm42.6 50.6V95.5c5.4 7.4 11.3 11.1 17.6 11.1 2.4 0 4.3-.6 5.8-1.8 1.5-1.2 2.2-2.7 2.2-4.6 0-2.6-1.6-5.2-4.9-7.7l-4.5-3.4c-3-2.2-5.6-4.3-7.7-6.5-2.1-2.1-3.8-4.4-5.2-6.6-1.3-2.3-2.3-4.6-2.9-7-.6-2.4-.9-5-.9-7.6 0-4.6 1.1-9.4 3.3-14.4 1.1-2.3 2.4-4.5 3.8-6.4 1.4-1.9 3.1-3.6 5-5.1 5.2-4.2 11.5-6.4 18.8-6.4 6.6 0 13.2 1.7 19.8 5.1v30.6c-2.2-3.5-4.8-6.2-7.7-8.2-2.9-2-5.7-3-8.5-3-2.1 0-3.9.6-5.2 1.8-1.4 1.1-2.1 2.5-2.1 4.1 0 2.6 1.9 5.2 5.6 7.8l4.4 3.1c5.8 4 10 8.2 12.5 12.4 2.6 4.2 3.8 9.2 3.8 14.9 0 9.7-3.1 17.7-9.2 23.9-6.1 6.3-13.9 9.4-23.3 9.4-6.2.1-13.1-1.3-20.5-4.1zm57.9 3.2v-100h50.2v24h-23.2v14.1h20.8v24h-20.8v13.9h23.2v24h-50.2zm96.4 0h-27v-76h-14.9v-24H611v24h-15.5v76zm-429 0h-27v-100h26.2c13 0 22.7 2.7 29 8 7.4 6.3 11.1 15 11.1 26.1 0 12.1-4 21.2-11.9 27.1-5.4 4-13.2 6-23.3 6h-4.2v32.8h.1zm0-53.8l1.2.1c3.3 0 5.9-1 7.8-3 1.9-2 2.9-4.8 2.9-8.3 0-3.5-1-6.3-2.8-8.4-1.9-2.2-4.3-3.3-7.3-3.3h-1.9l.1 22.9zm69.5 53.8h-27v-100h26.2c13 0 22.7 2.7 29 8 7.4 6.3 11.1 15 11.1 26.1 0 12.1-4 21.2-11.9 27.1-5.4 4-13.2 6-23.3 6H236v32.8zm0-53.8l1.2.1c3.3 0 5.9-1 7.8-3 1.9-2 2.9-4.8 2.9-8.3 0-3.5-1-6.3-2.8-8.4-1.9-2.2-4.3-3.3-7.3-3.3H236v22.9z"/></svg>